<?xml version="1.0" encoding="UTF-8" standalone="no"?>
<!DOCTYPE svg PUBLIC "-//W3C//DTD SVG 1.1//EN" "http://www.w3.org/Graphics/SVG/1.1/DTD/svg11.dtd">
<svg width="100%" height="100%" viewBox="0 0 412 125" version="1.1" xmlns="http://www.w3.org/2000/svg" xmlns:xlink="http://www.w3.org/1999/xlink" xml:space="preserve" xmlns:serif="http://www.serif.com/" style="fill-rule:evenodd;clip-rule:evenodd;stroke-linejoin:round;stroke-miterlimit:2;">
    <g transform="matrix(1,0,0,1,-57.7576,-44.7924)">
        <g transform="matrix(1,0,0,1,171.571,-74.3407)">
            <text x="75.604px" y="180.073px" style="font-family:'ArialMT', 'Arial', sans-serif;font-size:36px;fill:rgb(0,0,246);">k</text>
        </g>
        <g transform="matrix(1,0,0,1,-150.33,48.7912)">
            <text x="345.136px" y="120.422px" style="font-family:'ArialMT', 'Arial', sans-serif;font-size:100px;fill:rgb(255,0,0);">A</text>
        </g>
        <g transform="matrix(1,0,0,1,-509.462,-300.67)">
            <text x="565.256px" y="462.694px" style="font-family:'ArialMT', 'Arial', sans-serif;font-size:30px;fill:rgb(255,0,0);">base</text>
            <text x="638.645px" y="462.694px" style="font-family:'ArialMT', 'Arial', sans-serif;font-size:55px;fill:rgb(255,0,0);">→</text>
        </g>
        <g transform="matrix(1,0,0,1,-276.044,-354.22)">
            <text x="559.139px" y="462.694px" style="font-family:'ArialMT', 'Arial', sans-serif;font-size:55px;fill:rgb(0,0,246);">←</text>
            <text x="622.474px" y="462.694px" style="font-family:'ArialMT', 'Arial', sans-serif;font-size:30px;fill:rgb(0,0,246);">exponent</text>
        </g>
        <g transform="matrix(1,0,0,1,87.989,-141.142)">
            <text x="23.304px" y="203.114px" style="font-family:'Arial-BoldMT', 'Arial', sans-serif;font-weight:700;font-size:24px;">Exponential Expression</text>
        </g>
        <g transform="matrix(1,0,0,1,-509.462,-300.67)">
            <text x="565.256px" y="462.694px" style="font-family:'ArialMT', 'Arial', sans-serif;font-size:30px;fill:rgb(255,0,0);">base</text>
            <text x="638.645px" y="462.694px" style="font-family:'ArialMT', 'Arial', sans-serif;font-size:55px;fill:rgb(255,0,0);">→</text>
        </g>
    </g>
</svg>
